<svg viewBox="0 0 25 25" xmlns="http://www.w3.org/2000/svg"><path d="m15.67 25h-14.19a1.48 1.48 0 0 1 -1.48-1.48v-.22c0-3 2.44-4 4.39-4.76l.61-.24c1.22-.5 1.22-1 1.22-1.26a2.09 2.09 0 0 0 -.62-1.34 4.12 4.12 0 0 1 -1.34-3.21 4.18 4.18 0 0 1 4.24-4.49 4.27 4.27 0 0 1 4.33 4.49 4.14 4.14 0 0 1 -1.4 3.21 2 2 0 0 0 -.49 1.3c0 .46 0 .83 1.06 1.26l.6.24c2 .78 4.39 1.74 4.39 4.76v.22a1.35 1.35 0 0 1 -1.32 1.52zm-7.17-16a3.21 3.21 0 0 0 -3.24 3.49 3.12 3.12 0 0 0 1 2.46 3 3 0 0 1 1 2.08c0 1-.57 1.67-1.84 2.19l-.61.25c-1.9.73-3.81 1.53-3.81 3.83v.22a.48.48 0 0 0 .48.48h14.19c.28 0 .33-.3.33-.48v-.22c0-2.34-1.91-3.1-3.76-3.83l-.61-.25c-1.55-.63-1.68-1.43-1.68-2.19a2.92 2.92 0 0 1 .82-2.03 3.17 3.17 0 0 0 1.07-2.46 3.28 3.28 0 0 0 -3.34-3.54zm6 2a.5.5 0 0 1 -.48-.64l.65-2.22a5.5 5.5 0 1 1 4.83 2.86 5.45 5.45 0 0 1 -2.82-.78l-2 .75a.51.51 0 0 1 -.18.03zm2.24-1.83a.5.5 0 0 1 .28.08 4.44 4.44 0 0 0 2.48.75 4.49 4.49 0 1 0 -3.86-2.18.5.5 0 0 1 .05.4l-.43 1.46 1.3-.48a.51.51 0 0 1 .18-.03zm3.26-2.17h-3v-1h3zm2-2h-5v-1h5z"/></svg>
