<svg viewBox="0 0 25 25" xmlns="http://www.w3.org/2000/svg"><path d="m21.75 25h-18.5a1.25 1.25 0 0 1 -1.25-1.25v-19.5a1.25 1.25 0 0 1 1.25-1.25h2.84a1.5 1.5 0 0 1 1.41-1h2.5v-.5a1.5 1.5 0 0 1 1.5-1.5h2a1.5 1.5 0 0 1 1.5 1.5v.5h2.5a1.5 1.5 0 0 1 1.41 1h2.84a1.25 1.25 0 0 1 1.25 1.25v19.5a1.25 1.25 0 0 1 -1.25 1.25zm-18.5-21a.26.26 0 0 0 -.25.25v19.5a.26.26 0 0 0 .25.25h18.5a.26.26 0 0 0 .25-.25v-19.5a.26.26 0 0 0 -.25-.25h-2.75v1.5a.5.5 0 0 1 -.5.5h-12a.5.5 0 0 1 -.5-.5v-1.5zm3.75 1h11v-1.5a.5.5 0 0 0 -.5-.5h-3a.5.5 0 0 1 -.5-.5v-1a.5.5 0 0 0 -.5-.5h-2a.5.5 0 0 0 -.5.5v1a.5.5 0 0 1 -.5.5h-3a.5.5 0 0 0 -.5.5zm4 12.5a.5.5 0 0 1 -.35-.15l-3.52-3.48.71-.71 3.16 3.13 6.66-6.66.71.71-7 7a.5.5 0 0 1 -.37.16z"/></svg>
