<svg viewBox="0 0 25 25" xmlns="http://www.w3.org/2000/svg"><path d="m12.5 0a12.51 12.51 0 0 0 -10.83 18.76l-1.67 5.6a.5.5 0 0 0 .5.64.52.52 0 0 0 .17 0l5.14-1.91a12.36 12.36 0 0 0 6.69 1.91 12.5 12.5 0 0 0 0-25zm0 24a11.36 11.36 0 0 1 -6.35-1.92.49.49 0 0 0 -.28-.08.52.52 0 0 0 -.17 0l-4.44 1.68 1.43-4.85a.5.5 0 0 0 -.05-.4 11.5 11.5 0 1 1 9.86 5.57zm-5.5-11.5a.5.5 0 0 1 .5-.5h9a.5.5 0 0 1 0 1h-9a.5.5 0 0 1 -.5-.5zm12 3a.5.5 0 0 1 -.5.5h-11a.5.5 0 0 1 0-1h11a.5.5 0 0 1 .5.5zm0-6a.5.5 0 0 1 -.5.5h-11a.5.5 0 0 1 0-1h11a.5.5 0 0 1 .5.5z"/></svg>
