<svg clip-rule="evenodd" fill-rule="evenodd" stroke-linejoin="round" stroke-miterlimit="2" viewBox="0 0 512 512" xmlns="http://www.w3.org/2000/svg"><path d="m255.022 511.998.229.001h-.079zm1.806.001h-.079l.229-.001zm-2.588-.005.247.001h-.142zm3.415.001h-.142l.247-.001zm-4.169-.007.165.001-.132-.001zm4.995 0-.132.001.165-.001zm.826-.009-.058.001.223-.003zm-6.779-.002.223.003-.058-.001zm7.604-.01-.135.002.275-.004zm-8.404-.002.275.004-.135-.002zm9.228-.012-.182.003.254-.005zm-9.984-.002.254.005-.182-.003zm-.937-.019.225.005-.04-.001zm11.745.004-.04.001.225-.005zm-12.567-.025.309.008-.125-.003zm13.39.005-.125.003.309-.008zm.823-.022-.201.006.316-.009zm-14.967-.003.316.009-.201-.006zm-.72-.022.225.007-.212-.007-.194-.006zm16.509 0-.212.007.225-.007.181-.006zm.821-.027-.112.004.345-.012zm-18.371-.008.345.012-.112-.004zm-.749-.028.362.013-.201-.007zm19.941.006-.201.007.362-.013zm-20.676-.036.354.015-.277-.011zm21.495.004-.277.011.354-.015zm-22.525-.049.38.017-.093-.003zm23.345.014-.093.003.38-.017zm-24.084-.048.394.018-.186-.008zm24.902.01-.186.008.394-.018zm-25.63-.047.397.02-.279-.013zm26.448.007-.279.013.397-.02zm.818-.043-.362.019.321-.017.378-.021zm-27.925.002.321.017-.362-.019-.337-.019zm28.741-.048-.16.009.406-.023zm-29.844-.014.406.023-.16-.009zm-.722-.043.405.024-.253-.014zm31.382.01-.253.014.405-.024zm-32.071-.053.365.023-.34-.021-.342-.022zm32.887.002-.34.021.365-.023.317-.02zm.814-.053-.122.008.387-.026zm-34.755-.018.387.026-.122-.008zm-.721-.05.38.027-.208-.014zm36.29.013-.208.014.38-.027zm-37.009-.064.349.025-.271-.019zm37.822.006-.271.019.349-.025zm-38.789-.079.306.023-.074-.005zm39.602.018-.074.005.306-.023zm.811-.063-.146.011.311-.025zm-41.157-.014.311.025-.146-.011zm-.725-.059.264.022-.186-.015zm42.694.007-.186.015.264-.022zm-43.492-.074.079.007-.013-.001zm44.302.006-.013.001.079-.007zm.81-.071-.072.006.181-.016zm-45.965-.01.181.016-.072-.006zm-.75-.068.135.013-.084-.008zm47.523.005-.084.008.135-.013zm-63.736-2.025c-122.319-19.226-216-125.203-216-252.887 0-141.29 114.71-256 256-256s256 114.71 256 256c0 127.684-93.681 233.661-216 252.887v-178.887h59.65l11.35-74h-71v-48.021c0-20.245 9.918-39.979 41.719-39.979h32.281v-63s-29.296-5-57.305-5c-58.476 0-96.695 35.44-96.695 99.6v56.4h-65v74h65z"/></svg>