<svg data-name="Layer 1" id="Layer_1" viewBox="0 0 25 25" xmlns="http://www.w3.org/2000/svg"><defs></defs><path class="cls-1" d="M20.24 3.85A2 2 0 1 0 19 2a2 2 0 0 0 .44 1.24l-3.68 4.91a2 2 0 0 0-1.92.23l-3-2.53A2 2 0 0 0 11 5a2 2 0 1 0-3.64 1.14l-3.48 4.07A2 2 0 0 0 3 10a2 2 0 1 0 1.64.86l3.48-4.07a2 2 0 0 0 2-.17l3 2.53A2 2 0 0 0 13 10a2 2 0 0 0 4 0 2 2 0 0 0-.44-1.24zM21 1a1 1 0 1 1-1 1 1 1 0 0 1 1-1zM3 13a1 1 0 1 1 1-1 1 1 0 0 1-1 1zm6-7a1 1 0 1 1 1-1 1 1 0 0 1-1 1zm6 5a1 1 0 1 1 1-1 1 1 0 0 1-1 1zM3.75 18h-1.5A1.25 1.25 0 0 0 1 19.25V25h4v-5.75A1.25 1.25 0 0 0 3.75 18zM4 24H2v-4.75a.25.25 0 0 1 .25-.25h1.5a.25.25 0 0 1 .25.25zm11.75-8h-1.5A1.25 1.25 0 0 0 13 17.25V25h4v-7.75A1.25 1.25 0 0 0 15.75 16zm.25 8h-2v-6.75a.25.25 0 0 1 .25-.25h1.5a.25.25 0 0 1 .25.25zM9.75 14h-1.5A1.25 1.25 0 0 0 7 15.25V25h4v-9.75A1.25 1.25 0 0 0 9.75 14zM10 24H8v-8.75a.25.25 0 0 1 .25-.25h1.5a.25.25 0 0 1 .25.25zm11.75-14h-1.5A1.25 1.25 0 0 0 19 11.25V25h4V11.25A1.25 1.25 0 0 0 21.75 10zM22 24h-2V11.25a.25.25 0 0 1 .25-.25h1.5a.25.25 0 0 1 .25.25z"/></svg>
