<svg id="Layer_1" viewBox="0 0 25 25" xmlns="http://www.w3.org/2000/svg"><path class="st0" d="M17.98 24H7.02C6 24 6 22.95 6 22.55v-.21c0-3.26 1.76-4.06 3.47-4.84.4-.18.6-.34.71-.5H1.02C0 17 0 15.95 0 15.55v-.21c0-3.27 1.77-4.06 3.47-4.84.82-.37.82-.66.82-1.1v-.11c0-.44-.09-.81-.54-1.3l-.11-.12c-.62-.67-1.16-1.25-1.16-2.75C2.48 2.5 3.95 1 6.5 1c2.58 0 4.05 1.49 4.05 4.1 0 1.59-.54 2.19-1.23 2.95-.48.51-.5.79-.5 1.21v.11c0 .23 0 .38.13.54C9.56 8.68 10.79 8 12.5 8c1.7 0 2.92.66 3.55 1.86.17-.19.17-.38.17-.64 0-.48-.08-.79-.51-1.26l-.11-.13c-.63-.69-1.14-1.23-1.14-2.73 0-2.61 1.47-4.1 4.04-4.1 2.57 0 4.04 1.5 4.04 4.12 0 1.58-.58 2.22-1.25 2.97-.48.52-.52.86-.52 1.25v.17c-.01.43-.02.66.77 1.01 1.71.77 3.47 1.56 3.47 4.82v.21c0 .4 0 1.45-1.02 1.45h-9.15c.08.17.28.33.7.52 1.7.78 3.46 1.58 3.46 4.82v.21c0 .4 0 1.45-1.02 1.45zM7.03 23h10.95c0-.01.02-.18.02-.45v-.21c0-2.6-1.21-3.14-2.88-3.9-1.28-.57-1.37-1.28-1.36-1.95v-.14c0-.65.13-1.23.78-1.93.62-.67.99-1.08.99-2.29 0-2.07-1.02-3.12-3.03-3.12s-3.02 1.05-3.02 3.12c0 1.11.3 1.43.89 2.07l.12.13c.71.78.81 1.44.81 1.98.01.8-.09 1.53-1.41 2.12C8.27 19.14 7 19.72 7 22.34v.21c0 .26.02.39.03.45zM6.51 2C4.5 2 3.48 3.05 3.48 5.12c0 1.11.32 1.45.89 2.07l.12.13c.71.77.8 1.43.8 1.98.01.79-.09 1.53-1.4 2.12-1.62.72-2.89 1.3-2.89 3.92v.21c0 .34.03.45.05.49l9.23-.04c-.04-.32-.18-.63-.53-1.01l-.11-.12c-.62-.67-1.15-1.25-1.15-2.75 0-.43.04-.83.12-1.2-.73-.5-.79-1.02-.78-1.56v-.1c0-.68.12-1.21.76-1.89.62-.69.96-1.07.96-2.27C9.55 3.04 8.53 2 6.51 2zm8.28 14h9.19s.02-.12.02-.45v-.21c0-2.61-1.21-3.15-2.88-3.9-1.29-.57-1.38-1.28-1.36-1.95v-.14c0-.65.13-1.23.79-1.93.63-.7.99-1.09.99-2.29 0-2.07-1.02-3.12-3.03-3.12-2.03 0-3.05 1.04-3.05 3.1 0 1.11.29 1.43.87 2.05l.12.13c.64.7.77 1.28.77 1.94 0 .57-.07 1.12-.81 1.64.09.39.13.81.13 1.26 0 1.6-.58 2.23-1.25 2.96-.34.36-.46.64-.5.91z"/></svg>
