<svg viewBox="0 0 25 25" xmlns="http://www.w3.org/2000/svg"><path d="m2.73 3.23 2.83 2.83-.71.71-2.85-2.83zm-2.73 10.77h4v-1h-4zm13-14h-1v4h1zm8 13v1h4v-1zm-2-.49a6.49 6.49 0 0 1 -1.6 4.26 5.46 5.46 0 0 0 -1.4 3.55v1.18a3.48 3.48 0 1 1 -7 0v-1.18a5.49 5.49 0 0 0 -1.44-3.58 6.49 6.49 0 1 1 11.44-4.23zm-4 8.49h-5v.5a2.49 2.49 0 1 0 5 0zm3-8.49a5.51 5.51 0 0 0 -1.83-4.1 5.44 5.44 0 0 0 -4.3-1.41 5.53 5.53 0 0 0 -4.79 4.58 5.45 5.45 0 0 0 1.26 4.47 6.52 6.52 0 0 1 1.66 3.95h5a6.49 6.49 0 0 1 1.63-3.89 5.48 5.48 0 0 0 1.37-3.6zm3.87-9.27-2.87 2.82.71.71 2.83-2.83z"/></svg>
