<svg width="512" height="512" xmlns="http://www.w3.org/2000/svg"><g fill="none" fill-rule="evenodd"><circle fill="#2DCC70" cx="256" cy="256" r="256"/><path d="M116.23 172.141H96.899v-15.728h55.378v15.728h-19.333v100.926H116.23V172.14zm47.685-15.728h16.712v49.97h20.644v-49.97h16.711v116.654h-16.711v-51.938h-20.644v51.938h-16.712V156.413zm74.554 0h16.712v116.654h-16.712V156.413zm36.543 0h16.057l25.23 70.287h.329v-70.287h16.711v116.654h-15.728l-25.56-70.124h-.327v70.124h-16.712V156.413zm77.667 0h16.712v53.248h.328l24.412-53.248h16.711l-22.773 46.694 27.033 69.96h-17.694l-19.006-51.774-9.011 16.876v34.898h-16.712V156.413z" fill="#1B264F"/><path d="M132.233 365.227v-72.9h25.5c9.867.066 17.267 4.166 22.2 12.3 1.767 2.733 2.884 5.6 3.35 8.6.367 3 .55 8.183.55 15.55 0 7.833-.283 13.3-.85 16.4-.266 1.566-.666 2.966-1.2 4.2-.566 1.2-1.25 2.45-2.05 3.75-2.133 3.433-5.1 6.266-8.9 8.5-3.766 2.4-8.383 3.6-13.85 3.6h-24.75zm11.05-62.45v52h13.2c6.2 0 10.7-2.117 13.5-6.35 1.234-1.567 2.017-3.55 2.35-5.95.3-2.367.45-6.8.45-13.3 0-6.334-.15-10.867-.45-13.6-.4-2.734-1.35-4.95-2.85-6.65-3.066-4.234-7.4-6.284-13-6.15h-13.2zm51.378 62.45v-51.9h10.45v51.9h-10.45zm0-62.45v-10.45h10.45v10.45h-10.45zm52.028 57c-3.433 3.9-7.9 5.916-13.4 6.05-3.367-.067-6.167-.784-8.4-2.15-2.333-1.3-4.117-2.7-5.35-4.2-1.367-1.7-2.35-3.784-2.95-6.25-.633-2.434-.95-7.067-.95-13.9 0-6.967.317-11.684.95-14.15.6-2.434 1.583-4.484 2.95-6.15 1.233-1.634 3.017-3.1 5.35-4.4 2.233-1.234 5.033-1.884 8.4-1.95 5.167 0 9.633 2.05 13.4 6.15v-5.5h10.45v50.65c-.133 7.8-2.383 13.533-6.75 17.2-4.4 3.766-9.667 5.65-15.8 5.65-7.033-.134-13.033-3.034-18-8.7l8.1-6.45c1.333 1.233 2.867 2.283 4.6 3.15 1.767.966 3.6 1.483 5.5 1.55 3.567 0 6.433-.984 8.6-2.95 2.133-2 3.233-4.767 3.3-8.3v-5.35zm-20.6-20.45c0 3.966.133 6.7.4 8.2.233 1.566.783 2.866 1.65 3.9.7.933 1.767 1.783 3.2 2.55 1.367.933 3.067 1.4 5.1 1.4 2.033 0 3.733-.467 5.1-1.4 1.367-.767 2.4-1.617 3.1-2.55.867-1.034 1.45-2.334 1.75-3.9.2-1.5.3-4.234.3-8.2 0-4.034-.1-6.834-.3-8.4-.3-1.567-.883-2.834-1.75-3.8-.7-.934-1.733-1.85-3.1-2.75-1.367-.767-3.067-1.184-5.1-1.25-2.033.066-3.733.483-5.1 1.25-1.433.9-2.5 1.816-3.2 2.75-.867.966-1.417 2.233-1.65 3.8-.267 1.566-.4 4.366-.4 8.4zm43.428 25.9v-51.9h10.45v51.9h-10.45zm0-62.45v-10.45h10.45v10.45h-10.45zm23.427 10.55v-15.8h10.45v15.8h7.6v7.95h-7.6v30.25c-.066 2.633 1.167 3.916 3.7 3.85h3.9v9.85h-5.45c-3.666 0-6.666-1.134-9-3.4-2.4-2.167-3.6-5.3-3.6-9.4v-31.15h-5.2v-7.95h5.2zm53.678 51.9v-4.6h-.2c-.966 1.766-2.466 3.066-4.5 3.9-2 .866-4.766 1.3-8.3 1.3-5.8-.067-10.266-1.6-13.4-4.6-3.3-2.934-4.95-6.684-4.95-11.25 0-4.367 1.434-7.984 4.3-10.85 2.867-2.934 7.067-4.434 12.6-4.5h14.45v-5.45c.067-4.567-3.483-6.784-10.65-6.65-2.6 0-4.65.266-6.15.8-1.566.633-2.8 1.7-3.7 3.2l-8.2-6.25c3.967-5.2 9.817-7.734 17.55-7.6 6.534-.067 11.75 1.166 15.65 3.7 3.9 2.6 5.884 7.066 5.95 13.4v35.45h-10.45zm0-18.25v-3.75h-12.5c-6.066.133-9.066 2.216-9 6.25 0 1.766.784 3.266 2.35 4.5 1.5 1.366 3.984 2.05 7.45 2.05 4.367.066 7.45-.45 9.25-1.55 1.634-1.1 2.45-3.6 2.45-7.5zm22.528 5.65v-60.3h10.45v59.5c0 2.366 1.3 3.55 3.9 3.55h3.6v9.85h-4.65c-3.8 0-6.933-.95-9.4-2.85-2.6-1.934-3.9-5.184-3.9-9.75z" fill="#FFF"/></g></svg>