<svg viewBox="0 0 25 25" xmlns="http://www.w3.org/2000/svg"><path d="m25 12a3.49 3.49 0 0 0 -3-3.45v-7.05a.5.5 0 0 0 -.5-.5c-2 0-3.47 1.88-4.89 3.69-1.28 1.63-2.61 3.31-4.11 3.31h-8.34a1.16 1.16 0 0 0 -1.16 1.16v.84h-1a2 2 0 0 0 0 4h1v.84a1.16 1.16 0 0 0 1.16 1.16h-.16v6.73a1.27 1.27 0 0 0 1.27 1.27h2.47a1.26 1.26 0 0 0 1.26-1.26v-6.49a.25.25 0 0 1 .25-.25h3.25c1.58 0 2.91 1.7 4.19 3.35s2.83 3.65 4.81 3.65a.5.5 0 0 0 .5-.5v-7.05a3.49 3.49 0 0 0 3-3.45zm-23 1a1 1 0 0 1 0-2h1v2zm6 3.25v6.49a.26.26 0 0 1 -.26.26h-2.47a.27.27 0 0 1 -.27-.27v-6.73h3.05a1.19 1.19 0 0 0 -.05.25zm-3.84-1.25a.16.16 0 0 1 -.16-.16v-5.68a.16.16 0 0 1 .16-.16h7.84v6zm16.84 6.94c-1.27-.3-2.37-1.72-3.52-3.2-1.31-1.69-2.66-3.43-4.48-3.74v-6c1.74-.28 3.09-2 4.39-3.65 1.14-1.49 2.31-2.97 3.61-3.29zm1-7.49v-4.9a2.5 2.5 0 0 1 0 4.9z"/></svg>
