<svg viewBox="0 0 32 32" xmlns="http://www.w3.org/2000/svg"><title/><g id="handphone"><path d="M22,2H10A3,3,0,0,0,7,5V27a3,3,0,0,0,3,3H22a3,3,0,0,0,3-3V5A3,3,0,0,0,22,2Zm1,25a1,1,0,0,1-1,1H10a1,1,0,0,1-1-1V5a1,1,0,0,1,1-1h2.5a1,1,0,0,0,1,1h5a1,1,0,0,0,1-1H22a1,1,0,0,1,1,1Z"/><path d="M16.71,25.29a1.15,1.15,0,0,0-.33-.21,1,1,0,0,0-1.09.21,1.15,1.15,0,0,0-.21.33.94.94,0,0,0,0,.76,1.15,1.15,0,0,0,.21.33,1.46,1.46,0,0,0,.33.22,1.07,1.07,0,0,0,.76,0,1.46,1.46,0,0,0,.33-.22,1.15,1.15,0,0,0,.21-.33.94.94,0,0,0,0-.76A1.15,1.15,0,0,0,16.71,25.29Z"/></g></svg>
