<svg viewBox="0 0 25 25" xmlns="http://www.w3.org/2000/svg"><path d="m21.75 14h-1.75a7.66 7.66 0 0 0 -4.33-6.84 4.27 4.27 0 0 0 -2.32-7 4.31 4.31 0 0 0 -3.56.84 4.26 4.26 0 0 0 -1.56 3.27 4.59 4.59 0 0 0 1.08 2.91 7.53 7.53 0 0 0 -4.31 6.82h-1.75a1.25 1.25 0 0 0 -1.25 1.25v1.5a1.25 1.25 0 0 0 1.25 1.25h.75v6.5a.5.5 0 0 0 .5.5h16a.5.5 0 0 0 .5-.5v-6.5h.75a1.25 1.25 0 0 0 1.25-1.25v-1.5a1.25 1.25 0 0 0 -1.25-1.25zm-15.75 0a6.53 6.53 0 0 1 3.73-5.92 1.05 1.05 0 0 0 .58-.74 1 1 0 0 0 -.24-.88 3.26 3.26 0 0 1 .35-4.71 3.29 3.29 0 0 1 2.74-.68 3.27 3.27 0 0 1 1.77 5.39 1 1 0 0 0 -.25.89 1 1 0 0 0 .58.74 6.53 6.53 0 0 1 3.74 5.91h-10.84a3.88 3.88 0 0 1 1.93-2.81 1.24 1.24 0 0 0 1.16.81h2.5a1.25 1.25 0 0 0 1.25-1.25v-.5a1.25 1.25 0 0 0 -1.25-1.25h-2.5a1.24 1.24 0 0 0 -1.25 1.15c-1.77.53-2.6 2.49-2.86 3.85zm5.25-4h2.5a.25.25 0 0 1 .25.25v.5a.25.25 0 0 1 -.25.25h-2.5a.25.25 0 0 1 -.25-.25v-.5a.25.25 0 0 1 .25-.25zm8.75 14h-15v-6h15zm2-7.25a.25.25 0 0 1 -.25.25h-18.5a.25.25 0 0 1 -.25-.25v-1.5a.25.25 0 0 1 .25-.25h18.5a.25.25 0 0 1 .25.25z"/></svg>
