<svg viewBox="0 0 25 25" xmlns="http://www.w3.org/2000/svg"><path d="m12.15 12.85a.5.5 0 0 0 .71 0l4.85-4.85h3.29a.5.5 0 0 0 .38-.17l3.5-4a.5.5 0 0 0 -.38-.83h-1.79l1.6-1.6a.5.5 0 0 0 -.71-.71l-1.6 1.6v-1.79a.5.5 0 0 0 -.83-.38l-3 2.61a12.1 12.1 0 0 0 -1.29-.73 12 12 0 1 0 6.12 6.12l-.91.41a11 11 0 1 1 -5.58-5.58c.31.14.62.3.93.48l-.23.2a.5.5 0 0 0 -.21.37v2.79a7.77 7.77 0 0 0 -5-1.79 8 8 0 1 0 8 8 7.91 7.91 0 0 0 -.67-3.2l-.92.4a6.89 6.89 0 0 1 .59 2.8 7 7 0 1 1 -7-7 6.93 6.93 0 0 1 4.58 1.72l-2.13 2.12a3.92 3.92 0 0 0 -1.75-.78 4.06 4.06 0 0 0 -.7-.06 4 4 0 1 0 4 4 4.06 4.06 0 0 0 -.06-.7l-1 .17a3 3 0 0 1 .06.53 3 3 0 1 1 -3-3 3.06 3.06 0 0 1 .53 0 2.94 2.94 0 0 1 1.21.51l-1.59 1.59a.5.5 0 0 0 0 .75zm8.62-5.85h-2.06l3-3h1.69zm.23-3.71-3 3v-2.06l3-2.63z"/></svg>
