<svg viewBox="0 0 25 25" xmlns="http://www.w3.org/2000/svg"><g><path d="m6 2h4v1h-4z"/><path d="m24.28 14.2-1.35-2.81a2.11 2.11 0 0 0 -2.14-1.05l-4.79.66v-9.75a1.25 1.25 0 0 0 -1.25-1.25h-13.49a1.26 1.26 0 0 0 -1.26 1.26v22.49a1.25 1.25 0 0 0 1.25 1.25h13.5a1.25 1.25 0 0 0 1.25-1.25v-1.25c.2.08.39.17.6.23a7.15 7.15 0 0 0 1.94.27 6.92 6.92 0 0 0 3.4-.88 5.83 5.83 0 0 0 2.34-7.92zm-23.28-12.94a.26.26 0 0 1 .26-.26h13.49a.25.25 0 0 1 .25.25v2.75h-14v1h14v6.13l-.56.08-2.25-4.12a2.13 2.13 0 0 0 -2.82-.84 2 2 0 0 0 -1 1.22 1.94 1.94 0 0 0 .12 1.53l2.9 5.62c-1.78-.52-3.17-.47-4.15.14a2.71 2.71 0 0 0 -1.24 1.93.5.5 0 0 0 .4.53 23.62 23.62 0 0 1 5.4 1.78h-10.8zm14 22.49a.25.25 0 0 1 -.25.25h-13.5a.25.25 0 0 1 -.25-.25v-3.75h11.92a6 6 0 0 0 2.08 2zm6.46-2.5a6 6 0 0 1 -4.58.52 5.24 5.24 0 0 1 -3.23-2.47c-.82-1.49-4.89-2.56-6.53-2.94a1.69 1.69 0 0 1 .67-.78c.62-.38 1.9-.63 4.44.36a.5.5 0 0 0 .63-.7l-3.48-6.73a1 1 0 0 1 -.08-.76 1 1 0 0 1 .53-.62 1.13 1.13 0 0 1 1.49.43l2.4 4.44a.5.5 0 0 0 .51.26l6.7-.92a1.11 1.11 0 0 1 1.12.52l1.34 2.79a4.84 4.84 0 0 1 -1.93 6.6z"/><circle cx="8" cy="22" r="1"/></g></svg>
