<svg viewBox="0 0 25 25" xmlns="http://www.w3.org/2000/svg"><path d="m23 1h-21a2 2 0 0 0 -2 2v18a2 2 0 0 0 2 2h21a2 2 0 0 0 2-2v-18a2 2 0 0 0 -2-2zm1 20a1 1 0 0 1 -1 1h-21a1 1 0 0 1 -1-1v-14h23zm0-15h-23v-3a1 1 0 0 1 1-1h21a1 1 0 0 1 1 1zm-20-2.5v1a.5.5 0 0 1 -.5.5h-1a.5.5 0 0 1 -.5-.5v-1a.5.5 0 0 1 .5-.5h1a.5.5 0 0 1 .5.5zm3 0v1a.5.5 0 0 1 -.5.5h-1a.5.5 0 0 1 -.5-.5v-1a.5.5 0 0 1 .5-.5h1a.5.5 0 0 1 .5.5zm3 0v1a.5.5 0 0 1 -.5.5h-1a.5.5 0 0 1 -.5-.5v-1a.5.5 0 0 1 .5-.5h1a.5.5 0 0 1 .5.5zm1.5 15.92a1.43 1.43 0 0 0 1 .58 1.44 1.44 0 0 0 1-.58l3.59-3.86a3.35 3.35 0 0 0 0-4.6 3.14 3.14 0 0 0 -4.54.06l-.05.06-.1-.08a3.16 3.16 0 0 0 -4.48 0 3.34 3.34 0 0 0 0 4.58zm-2.86-7.76a2.1 2.1 0 0 1 3 0l.46.58a.5.5 0 0 0 .39.19.5.5 0 0 0 .39-.19l.41-.52a2.13 2.13 0 0 1 3.06 0 2.34 2.34 0 0 1 0 3.22l-3.59 3.87a1.74 1.74 0 0 1 -.27.25 1.83 1.83 0 0 1 -.26-.25l-3.6-3.88a2.33 2.33 0 0 1 .01-3.27z"/></svg>
