<svg viewBox="0 0 25 25" xmlns="http://www.w3.org/2000/svg"><path d="m23 1h-21a2 2 0 0 0 -2 2v18a2 2 0 0 0 2 2h21a2 2 0 0 0 2-2v-18a2 2 0 0 0 -2-2zm1 20a1 1 0 0 1 -1 1h-21a1 1 0 0 1 -1-1v-14h23zm0-15h-23v-3a1 1 0 0 1 1-1h21a1 1 0 0 1 1 1zm-19.5 7h16a.5.5 0 0 0 .5-.5v-3a.5.5 0 0 0 -.5-.5h-16a.5.5 0 0 0 -.5.5v3a.5.5 0 0 0 .5.5zm.5-3h15v2h-15zm-.5 10h5a.5.5 0 0 0 .5-.5v-4a.5.5 0 0 0 -.5-.5h-5a.5.5 0 0 0 -.5.5v4a.5.5 0 0 0 .5.5zm.5-4h4v3h-4zm7-1h9v1h-9zm0 2h9v1h-9zm0 2h9v1h-9zm-8-15.5v1a.5.5 0 0 1 -.5.5h-1a.5.5 0 0 1 -.5-.5v-1a.5.5 0 0 1 .5-.5h1a.5.5 0 0 1 .5.5zm3 0v1a.5.5 0 0 1 -.5.5h-1a.5.5 0 0 1 -.5-.5v-1a.5.5 0 0 1 .5-.5h1a.5.5 0 0 1 .5.5zm3 0v1a.5.5 0 0 1 -.5.5h-1a.5.5 0 0 1 -.5-.5v-1a.5.5 0 0 1 .5-.5h1a.5.5 0 0 1 .5.5z"/></svg>
