<svg viewBox="0 0 100 100" xmlns="http://www.w3.org/2000/svg"><path d="M50 4C24.6 4 4 24.6 4 50c0 9.6 2.9 18.7 8.4 26.5l-8.2 18c-.2.4-.1.8.2 1.1.3.3.7.4 1.1.3l19.7-7.2c7.4 4.8 16 7.3 24.8 7.3h.1c25.4 0 46-20.6 46-46S75.4 4 50 4zm25.6 63.7c-.3.8-1 1.7-1.4 2.4-.9 1.2-2 2.4-3 3.2-.2.2-.4.3-.6.5-.2.1-.3.2-.5.3-.8.6-1.6 1-2.3 1.2-.5.2-1.1.3-1.7.3h-.5c-1 0-1.6-.2-3-.7-1.1-.5-2.3-1-3.6-1.5l-.3-.2c-1.1-.5-2.2-1.1-3.3-1.6l-.4-.3c-1.1-.6-2.1-1.2-3.1-1.8l-.2-.2C44.8 65 39 59.8 34 53.3c-.5-.6-.9-1.2-1.4-1.8l-.6-.9-.6-.9c-.4-.6-.7-1.1-1.1-1.7l-.1-.1c-.3-.6-.7-1.1-1-1.7 0 0-.1-.1-.1-.2-1.6-2.8-3-5.7-4-8.5-1.1-3-1.4-4.9-.2-7 .5-.9 2.4-2.7 3.7-3.6 2.3-1.7 3.3-2.3 4.3-2.5.7-.1 1.8-.1 2.6.2.4.1.9.4 1.2.6 1.9 1.2 6.3 6.9 7.7 9.6 1 1.8 1.2 3.2.9 4.3-.3 1.2-1 1.9-3 3.4-.4.4-.9.7-1.2 1l-.2.2-.1.1c-.2.2-.3.8-.3 1.2 0 1 .7 3.3 1.9 5.1.9 1.4 2.4 3.2 4 4.6 1.8 1.6 3.4 2.7 5.2 3.6 2.1 1 3.4 1.3 4.1 1 .1-.1.3-.1.4-.2.2-.2.6-.7 1.3-1.5 1-1.3 1.5-1.8 2.3-2.2.2-.1.5-.2.7-.3 1.4-.5 2.9-.4 4.3.4 1 .5 3 1.7 4.3 2.6 1.6 1.1 5.4 4.1 6 4.8.6.7 1 1.6 1 2.6.1.6-.1 1.4-.4 2.2z"/><path d="M31.1 47.5L31.1 47.5 31.1 47.5z"/></svg>